<svg width="32" height="32" viewBox="0 0 32 32" fill="none" xmlns="http://www.w3.org/2000/svg">
<circle cx="16" cy="16" r="16" transform="rotate(-180 16 16)" fill="#54D3C2"/>
<path d="M7.56695 16.6547C7.24152 16.2789 7.24152 15.7211 7.56695 15.3453L11.2441 11.0994C11.8502 10.3995 13 10.8281 13 11.754L13 20.246C13 21.1719 11.8502 21.6005 11.2441 20.9006L7.56695 16.6547Z" fill="white"/>
<path d="M17.5669 16.6547C17.2415 16.2789 17.2415 15.7211 17.5669 15.3453L21.2441 11.0994C21.8502 10.3995 23 10.8281 23 11.754L23 20.246C23 21.1719 21.8502 21.6005 21.2441 20.9006L17.5669 16.6547Z" fill="white"/>
</svg>
